<svg xmlns="http://www.w3.org/2000/svg"  viewBox="0 0 24 24" width="24px" height="24px"><path d="M 18 1 C 14.67619 1 12 3.6761905 12 7 L 12 8 L 2.9296875 8 C 1.8344913 8 1 8.9455845 1 10 L 1 20 C 1 21.054415 1.8344913 22 2.9296875 22 L 14.070312 22 C 15.16551 22 16 21.054415 16 20 L 16 10 C 16 8.9455845 15.167599 8 14.072266 8 L 14 8 L 14 7 C 14 4.7238095 15.72381 3 18 3 C 20.27619 3 22 4.7238095 22 7 L 22 9 L 24 9 L 24 7 C 24 3.6761905 21.32381 1 18 1 z M 3 10 L 14 10 L 14 20 L 3 20 L 3 10 z M 8.5078125 13 C 7.4078125 13 6.5078125 13.9 6.5078125 15 C 6.5078125 16.1 7.4078125 17 8.5078125 17 C 9.6078125 17 10.507812 16.1 10.507812 15 C 10.507812 13.9 9.6078125 13 8.5078125 13 z"/></svg>